<?xml version="1.0" encoding="UTF-8" standalone="no"?>
<svg
   xmlns:dc="http://purl.org/dc/elements/1.1/"
   xmlns:cc="http://creativecommons.org/ns#"
   xmlns:rdf="http://www.w3.org/1999/02/22-rdf-syntax-ns#"
   xmlns:svg="http://www.w3.org/2000/svg"
   xmlns="http://www.w3.org/2000/svg"
   xmlns:sodipodi="http://sodipodi.sourceforge.net/DTD/sodipodi-0.dtd"
   xmlns:inkscape="http://www.inkscape.org/namespaces/inkscape"
   width="710.00006"
   height="713.55347"
   viewBox="0 0 316.25284 449.51036"
   version="1.1"
   id="svg8"
   inkscape:version="1.0.2 (e86c870879, 2021-01-15, custom)"
   sodipodi:docname="silvestre-cardano-logo.svg">
  <defs
     id="defs2" />
  <sodipodi:namedview
     id="base"
     pagecolor="#ffffff"
     bordercolor="#666666"
     borderopacity="1.0"
     inkscape:pageopacity="0.0"
     inkscape:pageshadow="2"
     inkscape:zoom="0.7729613"
     inkscape:cx="117.70911"
     inkscape:cy="303.8096"
     inkscape:document-units="px"
     inkscape:current-layer="layer1"
     inkscape:document-rotation="0"
     showgrid="true"
     width="500px"
     units="px"
     fit-margin-top="0"
     fit-margin-left="0"
     fit-margin-right="0"
     fit-margin-bottom="0"
     showguides="true"
     inkscape:window-width="2467"
     inkscape:window-height="1417"
     inkscape:window-x="2552"
     inkscape:window-y="-8"
     inkscape:window-maximized="1">
    <inkscape:grid
       type="xygrid"
       id="grid10"
       originx="-182.62486"
       originy="-50.396816" />
  </sodipodi:namedview>
  <metadata
     id="metadata5">
    <rdf:RDF>
      <cc:Work
         rdf:about="">
        <dc:format>image/svg+xml</dc:format>
        <dc:type
           rdf:resource="http://purl.org/dc/dcmitype/StillImage" />
        <dc:title></dc:title>
      </cc:Work>
    </rdf:RDF>
  </metadata>
  <g
     inkscape:label="Camada 1"
     inkscape:groupmode="layer"
     id="layer1"
     transform="translate(-258.28372,-50.396816)">
    <rect
       style="fill:#1a74bd;fill-opacity:1;fill-rule:evenodd;stroke:none;stroke-width:0.691828"
       id="rect14"
       width="314.98016"
       height="314.98016"
       x="256.76581"
       y="120.95238" />
    <rect
       style="fill:#0081ff;fill-opacity:1;fill-rule:evenodd;stroke:none;stroke-width:0.691828"
       id="rect14-9-2"
       width="314.98016"
       height="314.98016"
       x="-256.39639"
       y="-650.17255"
       transform="rotate(135)" />
    <rect
       style="opacity:1;mix-blend-mode:lighten;fill:#047ef4;fill-opacity:1;fill-rule:nonzero;stroke:none;stroke-width:0.691828"
       id="rect14-9"
       width="314.98016"
       height="314.98016"
       x="193.76978"
       y="51.656738" />
    <path
       d="m 414.40356,169.33875 c 5.14878,-2.68476 11.43378,3.54354 8.6982,8.68758 -1.58868,4.19316 -7.61268,5.3082 -10.68966,2.11194 -3.26004,-3.0675 -2.19696,-9.1305 1.99146,-10.79952 m -55.3794,5.9697 c 3.12774,-1.28748 7.08708,1.57806 6.76812,4.9869 0.3318,3.70062 -4.19316,6.42444 -7.38114,4.66566 -4.22388,-1.63596 -3.74082,-8.49264 0.61302,-9.65256 m 113.42358,9.75648 c -4.88772,-0.5904 -5.66142,-8.27532 -0.95562,-9.82266 3.64986,-1.78002 6.99852,1.55802 7.5324,5.01768 -0.76542,2.9541 -3.2388,5.65902 -6.57678,4.80498 m -100.8228,13.81386 c 5.22906,-3.30726 12.69054,1.6182 11.88618,7.69182 -0.2718,6.13266 -8.41704,9.68562 -13.01304,5.53974 -4.44354,-3.2565 -3.77028,-10.72746 1.12686,-13.23156 m 79.82502,3.50928 c 2.3328,-6.01218 11.78574,-6.1941 14.44104,-0.3414 2.62458,4.5546 -0.60354,10.19472 -5.27982,11.7432 -6.1941,1.15638 -12.07752,-5.53968 -9.16122,-11.40186 m -43.71528,11.06052 c -0.048,-5.16762 4.65618,-9.01824 9.56748,-9.37026 3.2577,0.65322 6.80832,2.04108 8.20566,5.3283 2.60448,4.5345 0.2916,10.77822 -4.41408,12.85944 -2.15208,1.206 -4.69632,0.7536 -7.0398,0.61302 -3.58248,-1.75878 -6.59922,-5.20776 -6.31926,-9.4305 m -82.3575,7.53 c 4.77666,-2.9364 11.2212,2.42262 9.4128,7.61148 -0.99576,4.48848 -7.02918,6.31458 -10.47822,3.44904 -3.68172,-2.68482 -3.09822,-9.13992 1.06542,-11.06052 m 176.8515,-0.012 c 4.05264,-3.14664 10.74042,0.4632 10.25736,5.57988 0.2718,4.66566 -5.51022,8.18436 -9.53328,5.78184 -4.43058,-1.99146 -4.88298,-8.808 -0.72408,-11.36172 m -71.33352,9.28992 c 6.68778,-2.40252 14.63124,0.4722 18.44286,6.43506 5.02824,7.28904 2.3529,18.3897 -5.44992,22.57224 -8.08518,4.94676 -19.89102,0.7536 -22.87704,-8.27532 -3.38994,-8.08278 1.54854,-18.19836 9.8841,-20.73198 m -39.23868,0.79494 c 7.41192,-3.49866 17.38692,-0.5634 20.96706,7.01856 4.21326,7.37994 0.95556,17.6562 -6.57678,21.46668 -7.54182,4.28292 -18.18186,1.0359 -21.83166,-6.88746 -4.09278,-7.6623 -0.4584,-18.0696 7.44138,-21.59778 m -39.28944,13.43232 c 0.5634,-4.77552 5.06844,-7.88316 9.61362,-8.20446 4.89714,0.5904 8.8092,4.39398 9.34188,9.35022 -0.321,4.90656 -4.11282,9.70218 -9.31236,9.6726 -5.72046,0.4926 -10.73574,-5.19834 -9.64314,-10.81836 m 116.04816,-7.16622 c 5.8728,-3.41832 14.02764,1.55802 13.76658,8.3049 0.4026,7.14846 -8.6226,12.18618 -14.47056,7.99296 -6.07482,-3.49152 -5.60112,-13.3248 0.70398,-16.29786 m -92.727,25.19448 c 6.8685,-1.88988 14.72214,1.34772 18.09084,7.66116 3.69,6.35472 2.18166,15.18282 -3.54942,19.84374 -7.35042,6.83664 -20.90682,4.09158 -24.81882,-5.23854 -4.49556,-8.55288 0.96498,-20.01504 10.2774,-22.26636 m 74.42466,-0.036 c 6.67722,-1.90992 14.52138,0.66384 18.111,6.74688 4.74594,6.95712 2.48046,17.33376 -4.58538,21.8187 -7.40118,5.20782 -18.86568,2.47338 -22.93842,-5.66964 -4.93728,-8.42298 0.03,-20.32686 9.4128,-22.89594 m -118.60182,7.93752 c 5.93304,-2.24424 12.50982,4.30302 10.10616,10.1853 -1.4682,5.35896 -9.02064,7.3398 -12.92208,3.3888 -4.56522,-3.7101 -2.87496,-11.96532 2.81592,-13.5741 m 160.81704,8.53638 c -0.171,-4.9161 3.4254,-9.26988 8.46666,-9.54156 4.06326,0.64374 8.01426,3.92148 7.69302,8.34498 0.372,5.84214 -6.66774,9.81324 -11.64522,7.06818 -2.3328,-1.1859 -3.52938,-3.57894 -4.51446,-5.8716 m -189.9897,-5.65074 c 3.56952,-1.55796 7.98474,1.53552 7.1697,5.49954 -0.1914,4.48848 -6.81774,6.2142 -9.25212,2.46396 -2.15094,-2.60448 -0.86346,-6.62052 2.08242,-7.9635 z m 225.06474,-0.0894 c 2.51352,-1.78944 6.54606,-0.5034 7.54176,2.43324 1.68912,3.20688 -1.40796,7.60086 -5.01762,7.0587 -5.06724,0.462 -6.70674,-7.26066 -2.52414,-9.49194 M 395.076,294.75555 c 9.3927,-2.44266 19.48938,5.38974 19.54848,15.0612 0.61302,9.77304 -9.33132,18.43932 -18.94608,16.18212 -7.43196,-1.19652 -13.26342,-8.35566 -13.02246,-15.86556 -0.018,-7.18272 5.40036,-13.85874 12.42006,-15.37776 m 37.1976,-0.018 c 9.53322,-2.66472 19.93116,5.3082 19.77996,15.20292 0.5034,9.59238 -9.1305,17.96688 -18.54444,16.06404 -8.85882,-1.14576 -15.39546,-10.87866 -12.92208,-19.47528 1.24848,-5.72868 6.03462,-10.38726 11.68656,-11.79168 m -71.7198,5.95314 c 6.59682,-1.12566 12.7815,6.2343 10.1061,12.49806 -1.95126,6.67482 -11.66526,8.48556 -15.96,3.03324 -5.03772,-5.23614 -1.27686,-14.80842 5.8539,-15.5313 m 109.08744,0.294 c 5.88228,-2.4639 13.1028,2.62458 12.6504,9.00882 0.2364,7.02804 -8.6781,11.87442 -14.43042,7.77216 -6.51534,-3.68292 -5.3295,-14.52138 1.78002,-16.78098 m 30.49086,30.58302 c -2.30328,-4.29354 1.88046,-9.98448 6.64764,-9.18954 2.373,-0.042 4.03254,1.82964 5.55156,3.39822 0.312,2.5443 0.83508,5.57988 -1.27686,7.54062 -2.86788,3.62976 -9.36438,2.59386 -10.92234,-1.7493 m -174.77496,-7.99422 c 4.45536,-2.96592 10.86678,1.45758 9.86514,6.6666 -0.5328,4.60656 -6.33582,7.23942 -10.15812,4.62546 -4.1022,-2.373 -3.951,-9.1293 0.2928,-11.29206 m 88.0212,9.64314 c 5.83266,-2.57376 13.26342,2.5041 12.71064,8.92854 0.4326,7.09884 -8.75844,12.01488 -14.46114,7.752 -6.33462,-3.66042 -5.27868,-14.42922 1.7505,-16.68054 m -40.76826,9.51084 c 4.968,-2.61396 11.6346,1.9005 11.1822,7.46028 0.1512,4.56528 -4.30422,8.45604 -8.8092,7.78158 -3.73134,-0.0804 -6.16458,-3.4254 -7.3611,-6.6063 0.0612,-3.46674 1.48824,-7.32798 4.9881,-8.63556 m 82.5807,0.0804 c 5.10858,-3.15732 12.36924,1.37724 11.88618,7.32324 0.1308,6.2142 -8.0745,10.19472 -12.83112,6.11262 -4.60542,-3.1998 -4.04316,-10.89162 0.94494,-13.43586 m 14.3607,35.50254 c -2.27256,-3.43836 0.4026,-7.58076 4.09278,-8.36508 2.96712,0.6036 6.10434,2.83482 5.4807,6.27444 -0.4326,4.65498 -7.24062,6.08304 -9.57348,2.09064 m -113.9964,-2.98596 c 0.9048,-2.72502 3.09702,-5.43342 6.3051,-4.7247 4.67628,0.3318 6.06414,7.37994 1.97142,9.55212 -3.68058,2.48166 -7.95054,-0.91656 -8.27652,-4.82742 m 54.99672,3.12654 c 0.89532,-4.03134 6.11376,-5.99208 9.55332,-3.85062 2.27262,0.97566 2.9364,3.5187 3.5199,5.68026 -0.312,1.12566 -0.5904,2.25252 -0.8646,3.37818 -1.40796,1.66896 -3.2175,3.33798 -5.56098,3.27774 -4.35498,0.5106 -8.2836,-4.41288 -6.64764,-8.48556"
       id="path1113"
       style="fill:#ffffff;fill-opacity:1;stroke-width:0.118118" />
  </g>
</svg>
